<svg width="24" height="27" viewBox="0 0 24 27" fill="none" xmlns="http://www.w3.org/2000/svg">
<path d="M10.9453 0.843742C9.22656 1.24999 7.99219 2.03124 7.11719 3.2578C6.3125 4.3828 5.98437 5.46093 5.98437 6.98437V7.98437H3.42969C0.648437 7.98437 0.671875 7.98437 0.445312 8.42968C0.382812 8.54687 0.359375 10.625 0.359375 15.7031C0.359375 22.5469 0.367187 22.8281 0.515625 23.4141C0.929687 25.0234 2.22656 26.3203 3.80469 26.6953C4.55469 26.8672 19.4453 26.8672 20.1953 26.6953C21.4062 26.4062 22.5625 25.4922 23.1172 24.3906C23.6484 23.3281 23.6406 23.5078 23.6406 15.6562C23.6406 10.6094 23.6172 8.54687 23.5547 8.42968C23.3281 7.98437 23.3516 7.98437 20.5781 7.98437H18.0156V7.02343C18.0156 6.49999 17.9609 5.83593 17.8984 5.54687C17.5234 3.7578 16.3594 2.24218 14.7266 1.42187C13.8359 0.96093 13.3984 0.859367 12.1953 0.83593C11.5937 0.820305 11.0312 0.820305 10.9453 0.843742ZM13.0469 2.59374C13.8984 2.81249 14.375 3.08593 15.0469 3.76562C16 4.71874 16.3672 5.68749 16.375 7.21874V7.98437H12H7.625V7.21874C7.63281 5.68749 8 4.71874 8.95312 3.76562C9.61719 3.09374 10.1016 2.81249 10.9219 2.59374C11.6641 2.39843 12.2969 2.39843 13.0469 2.59374ZM5.98437 10.7734C5.98437 12.0078 6.02344 12.1406 6.42969 12.3516C6.8125 12.5469 7.36719 12.3672 7.53906 11.9922C7.58594 11.8828 7.625 11.3359 7.625 10.7187V9.62499H12H16.375V10.7187C16.375 11.9062 16.4375 12.1484 16.7734 12.3281C17.1719 12.5312 17.6016 12.4375 17.875 12.0937C17.9922 11.9531 18.0156 11.75 18.0156 10.7734V9.62499H20.0078H22V15.8516C22 19.5078 21.9687 22.3047 21.9219 22.6172C21.7891 23.5078 21.3359 24.2266 20.6094 24.6953C19.8437 25.1797 20.0469 25.1719 12 25.1719C3.95312 25.1719 4.15625 25.1797 3.39062 24.6953C2.66406 24.2266 2.21094 23.5078 2.07812 22.6172C2.03125 22.3047 2 19.5078 2 15.8516V9.62499H3.99219H5.98437V10.7734Z" fill="#6D7074"/>
</svg>
