<svg width="30" height="30" viewBox="0 0 30 30" fill="none" xmlns="http://www.w3.org/2000/svg">
<path d="M13.1242 0.0817509C10.8448 0.363073 8.63568 1.18359 6.73129 2.44954C3.77802 4.41293 1.62752 7.28475 0.619659 10.6254C0.379413 11.3991 0.145027 12.5771 0.0571317 13.3683C-0.0190439 14.1009 -0.0190439 15.8944 0.0571317 16.627C0.689975 22.5699 4.89135 27.6454 10.628 29.3802C11.4014 29.6205 12.5792 29.8549 13.3703 29.9429C14.1027 30.019 15.8958 30.019 16.6283 29.9429C20.0972 29.5736 23.3141 27.997 25.7869 25.4534C27.4803 23.701 28.6816 21.6732 29.3789 19.3699C29.8125 17.9457 30 16.627 30 14.9977C30 13.7727 29.9414 13.0987 29.7305 12.0379C28.6699 6.64592 24.6501 2.21511 19.3706 0.615089C18.5971 0.374794 17.4193 0.14036 16.6283 0.0524464C15.8606 -0.0296059 13.8801 -0.012022 13.1242 0.0817509ZM17.1966 1.57041C23.0446 2.56676 27.4979 7.07962 28.4589 12.9757C28.6054 13.8841 28.6054 16.1112 28.4589 17.0197C27.4862 22.9801 22.9801 27.4872 17.0208 28.4601C16.1126 28.6066 13.8859 28.6066 12.9777 28.4601C7.01841 27.4872 2.51233 22.9801 1.53963 17.0197C1.39313 16.1112 1.39313 13.8841 1.53963 12.9757C2.02012 10.0394 3.33854 7.443 5.38942 5.38583C7.65125 3.1294 10.5342 1.77554 13.798 1.43561C14.425 1.37114 16.5169 1.45319 17.1966 1.57041Z" fill="#6D7074"/>
<path d="M15.5325 8.93751C14.759 9.10747 14.2668 9.42982 13.9797 9.9573C13.7101 10.4496 13.6457 10.7837 13.6105 11.9031L13.5754 12.9463H12.9132H12.2452V13.972V14.9976H12.9191H13.5929V18.0746V21.1516H14.9993H16.4056V18.0746V14.9976H17.308H18.2045L18.3041 14.1009C18.3568 13.6145 18.4154 13.1515 18.433 13.0753L18.4565 12.9463H17.431H16.4056V12.1903C16.4056 11.7742 16.429 11.3639 16.4642 11.276C16.5579 11.024 16.8333 10.9536 17.6947 10.9536H18.4565V9.89869V8.84373L17.1849 8.8496C16.3235 8.85546 15.7845 8.88476 15.5325 8.93751Z" fill="#6D7074"/>
</svg>
