<svg width="30" height="30" viewBox="0 0 30 30" fill="none" xmlns="http://www.w3.org/2000/svg">
<path d="M13.125 0.0878906C10.8457 0.369141 8.63672 1.18945 6.73242 2.45508C3.7793 4.41797 1.62891 7.28906 0.621094 10.6289C0.380859 11.4023 0.146484 12.5801 0.0585938 13.3711C-0.0175781 14.1035 -0.0175781 15.8965 0.0585938 16.6289C0.691406 22.5703 4.89258 27.6445 10.6289 29.3789C11.4023 29.6191 12.5801 29.8535 13.3711 29.9414C14.1035 30.0176 15.8965 30.0176 16.6289 29.9414C20.0977 29.5723 23.3145 27.9961 25.7871 25.4531C27.4805 23.7012 28.6816 21.6738 29.3789 19.3711C29.8125 17.9414 30 16.6289 30 14.9883C30 12.293 29.3555 9.82617 28.0606 7.57031C25.6699 3.41016 21.5684 0.679688 16.8164 0.0878906C15.9316 -0.0175781 14.0039 -0.0175781 13.125 0.0878906ZM16.5117 1.11914C18.9785 1.38281 21.3691 2.33789 23.4375 3.87891C24.1523 4.41211 25.5879 5.84766 26.1211 6.5625C27.6621 8.63086 28.6172 11.0215 28.8809 13.4883C28.9629 14.2031 28.9629 15.8027 28.8867 16.4941C28.6113 18.9785 27.6563 21.3691 26.127 23.4199C25.5762 24.1582 24.1582 25.5762 23.4199 26.127C21.3691 27.6562 18.9785 28.6113 16.4941 28.8867C15.8027 28.9629 14.2031 28.9629 13.4883 28.8809C11.0215 28.6172 8.63086 27.6621 6.5625 26.1211C5.84766 25.5879 4.41211 24.1523 3.87891 23.4375C2.33789 21.3691 1.38281 18.9785 1.11914 16.5117C1.03711 15.7793 1.03711 14.2207 1.11914 13.4883C1.38281 11.0215 2.33789 8.63086 3.87891 6.5625C4.41211 5.84766 5.84766 4.41211 6.5625 3.87891C8.58985 2.36719 11.0098 1.38867 13.3887 1.125C14.0566 1.04883 15.8438 1.04297 16.5117 1.11914Z" fill="#6D7074"/>
<path d="M7.86914 6.06447C6.94336 6.31643 6.30469 6.96096 6.06445 7.8926C5.93555 8.3965 5.93555 21.6035 6.06445 22.1074C6.31055 23.0567 6.94336 23.6895 7.89258 23.9356C8.17969 24.0117 9.1875 24.0234 15 24.0234C22.3359 24.0234 22.0781 24.0352 22.7227 23.707C23.2969 23.4141 23.7539 22.8106 23.9355 22.1074C24.0644 21.6035 24.0644 8.3965 23.9355 7.8926C23.6894 6.94338 23.0566 6.31057 22.1074 6.06447C21.6211 5.93557 8.33789 5.94143 7.86914 6.06447ZM22.0605 7.1719C22.4297 7.34182 22.6582 7.57033 22.8281 7.93947L22.9687 8.23244V15V21.7676L22.8281 22.0606C22.6582 22.4297 22.4297 22.6582 22.0605 22.8281L21.7676 22.9688H15H8.23242L7.93945 22.8281C7.57031 22.6582 7.3418 22.4297 7.17187 22.0606L7.03125 21.7676V15V8.23244L7.17187 7.93947C7.3418 7.57033 7.57031 7.34182 7.93945 7.1719L8.23242 7.03127H15H21.7676L22.0605 7.1719Z" fill="#6D7074"/>
<path d="M20.0215 8.05075C19.3242 8.30271 18.9375 8.90036 19.002 9.6445C19.0664 10.5 19.7461 11.0683 20.625 11.0039C21.8965 10.9101 22.4766 9.40427 21.6094 8.46091C21.2168 8.03318 20.5488 7.86325 20.0215 8.05075ZM20.8066 9.19333C20.9883 9.38083 21.0117 9.4863 20.9063 9.68552C20.748 9.99021 20.4199 10.0488 20.1855 9.81443C19.9512 9.58591 20.0039 9.26365 20.3027 9.09372C20.4902 8.98825 20.625 9.01169 20.8066 9.19333Z" fill="#6D7074"/>
<path d="M14.2676 10.0195C12.2578 10.3359 10.6641 11.7656 10.1309 13.7402C9.94922 14.4082 9.94922 15.5918 10.1309 16.2598C10.5234 17.7129 11.4609 18.8555 12.8027 19.5176C13.5469 19.8809 14.0684 19.998 15 19.998C15.9316 19.998 16.4531 19.8809 17.1973 19.5176C18.5391 18.8555 19.4766 17.7129 19.8691 16.2598C20.0449 15.6035 20.0508 14.4023 19.875 13.7637C19.2832 11.5664 17.4492 10.084 15.2051 9.99024C14.8828 9.97852 14.4609 9.99024 14.2676 10.0195ZM16.1484 11.2148C17.4199 11.6191 18.3691 12.5742 18.7969 13.875C19.0078 14.5195 19.0078 15.4805 18.7969 16.125C18.3691 17.4375 17.4375 18.3691 16.125 18.7969C15.75 18.9199 15.5625 18.9434 15 18.9434C14.4375 18.9434 14.25 18.9199 13.875 18.7969C12.5625 18.3691 11.6309 17.4375 11.2031 16.125C10.9922 15.4805 10.9922 14.5195 11.2031 13.875C11.6895 12.3867 12.9199 11.3145 14.4141 11.0742C14.8828 10.998 15.6621 11.0625 16.1484 11.2148Z" fill="#6D7074"/>
</svg>
