<svg width="40" height="40" viewBox="0 0 40 40" fill="none" xmlns="http://www.w3.org/2000/svg">
<path d="M26.5625 0.117188C24.1016 0.453125 22.25 1.49219 21.0859 3.17188C20.1953 4.46875 19.6875 6.41406 19.6875 8.53125V9.53125H20.7265C23.3906 9.53125 25.4219 8.83594 26.8984 7.4375C28.4375 5.96875 29.2187 3.75781 29.2187 0.882812V0L28.2656 0.0078125C27.7344 0.015625 26.9687 0.0625 26.5625 0.117188ZM27.4219 2.0625C27.4219 2.50781 27.1875 3.58594 26.9453 4.24219C26.3516 5.88281 25.1875 6.9375 23.4141 7.45312C22.8125 7.63281 21.5 7.85156 21.4297 7.78906C21.375 7.72656 21.6484 6.22656 21.8203 5.6875C22.3359 4.07812 23.4453 2.875 24.9609 2.29688C25.5781 2.0625 26.6875 1.8125 27.1328 1.80469C27.4141 1.79688 27.4219 1.80469 27.4219 2.0625Z" fill="#6D7074"/>
<path d="M11.8437 10.5937C8.33593 11.2266 5.23436 13.9375 3.90624 17.5391C3.51561 18.5937 3.27343 19.7656 3.16405 21.1328C3.10155 21.8672 3.24218 24.5 3.40624 25.7812C4.03905 30.7969 5.78124 34.9766 8.28124 37.5C9.17186 38.4062 9.8203 38.875 10.7891 39.3281C11.9219 39.8594 12.4219 39.9609 13.75 39.9531C15.0469 39.9375 15.9297 39.7578 17.0547 39.25C18.375 38.6641 18.7656 38.5156 19.3359 38.3984C20.7344 38.1094 22.1719 38.3516 23.7109 39.1172C24.8516 39.6875 26.0312 39.9531 27.4219 39.9531C28.2734 39.9531 28.5937 39.9219 29.0781 39.7812C31.6484 39.0469 33.8281 36.9062 35.4687 33.5C35.9375 32.5156 36.875 30.0078 36.875 29.7266C36.875 29.6562 36.6797 29.5937 36.3125 29.5312C34.9844 29.3203 34.0469 28.9609 33.0312 28.2734C31.7187 27.375 30.6719 25.8359 30.2578 24.1641C30.0547 23.3672 30.0781 21.7187 30.3047 20.8984C30.6562 19.5859 31.4844 18.2344 32.4062 17.4375C33.375 16.6094 34.0703 16.2422 35.4297 15.8516C36.0156 15.6875 36.3047 15.5703 36.2578 15.5156C36.2266 15.4687 35.9766 15.1328 35.7031 14.7734C33.9609 12.4609 31.7109 11.0312 29.1094 10.5781C28.1406 10.4062 26.1562 10.4687 25.2734 10.6953C24.9297 10.7812 23.8437 11.1328 22.8516 11.4844C21.8672 11.8359 20.8984 12.1406 20.7031 12.1641C20.4062 12.1953 20.125 12.125 18.9453 11.7187C16.6406 10.9219 15.9297 10.7031 15.2422 10.5859C14.4219 10.4375 12.6719 10.4453 11.8437 10.5937ZM14.9297 12.3047C15.2891 12.3672 16.5703 12.7578 17.7734 13.1641L19.9609 13.9141L20.6641 13.8828C21.2969 13.8437 21.5625 13.7734 23.2031 13.2031C25.5547 12.3828 26.0234 12.2578 27.0781 12.2109C28.9219 12.1172 30.5859 12.6016 32.1484 13.6797C32.4531 13.8828 32.8437 14.2109 33.0312 14.3984L33.375 14.7422L32.7891 15.0625C29.7422 16.7344 27.9609 20.3203 28.4453 23.7969C28.7734 26.1875 30.1641 28.4453 32.1172 29.7656C32.6484 30.1328 33.8359 30.7109 34.3516 30.8594L34.6719 30.9609L34.4844 31.4766C34.1719 32.3125 33.4062 33.8125 32.9062 34.5703C31.9375 36.0312 30.9219 37.0234 29.7656 37.6406C28.8672 38.125 28.3906 38.2422 27.3437 38.2266C26.2109 38.2109 25.5625 38.0469 24.1875 37.4297C23.0078 36.8906 22.1484 36.6484 21.1875 36.5781C19.6719 36.4609 18.4219 36.7109 16.8047 37.4531C15.7578 37.9375 15.2969 38.0781 14.375 38.2031C12.1016 38.5156 10.0234 37.3125 8.27343 34.6953C6.32811 31.7891 5.10936 27.5469 4.92968 23.0625C4.86718 21.3437 4.93749 20.2656 5.20311 19.2266C6.1328 15.4922 8.95311 12.7969 12.5 12.2422C12.9844 12.1641 14.3359 12.1953 14.9297 12.3047Z" fill="#6D7074"/>
</svg>
