<svg width="30" height="30" viewBox="0 0 30 30" fill="none" xmlns="http://www.w3.org/2000/svg">
<path d="M13.125 0.0878906C10.5234 0.410156 8.13281 1.37695 5.97656 2.97656C5.09766 3.63281 3.63281 5.09766 2.97656 5.97656C1.35938 8.15625 0.404297 10.541 0.0820312 13.1836C-0.0175781 14.0508 -0.0175781 15.9492 0.0820312 16.8164C0.404297 19.459 1.35938 21.8438 2.97656 24.0234C3.63281 24.9023 5.09766 26.3672 5.97656 27.0234C8.15625 28.6406 10.541 29.5957 13.1836 29.918C14.0508 30.0176 15.9492 30.0176 16.8164 29.918C19.459 29.5957 21.8438 28.6406 24.0234 27.0234C24.9023 26.3672 26.3672 24.9023 27.0234 24.0234C28.6406 21.8438 29.5957 19.459 29.918 16.8164C30.0176 15.9492 30.0176 14.0508 29.918 13.1836C29.5957 10.541 28.6406 8.15625 27.0234 5.97656C26.3672 5.09766 24.9023 3.63281 24.0234 2.97656C21.8438 1.35938 19.459 0.404297 16.8164 0.0820312C15.9785 -0.0175781 13.957 -0.0117188 13.125 0.0878906ZM16.8574 1.92773C22.6934 2.78906 27.2109 7.30664 28.0723 13.1426C28.2246 14.2031 28.2246 15.7969 28.0723 16.8574C27.2109 22.6934 22.6934 27.2109 16.8574 28.0723C15.7969 28.2246 14.2031 28.2246 13.1426 28.0723C7.30664 27.2109 2.78906 22.6934 1.92773 16.8574C1.77539 15.7969 1.77539 14.2031 1.92773 13.1426C2.7832 7.33008 7.2832 2.8125 13.0898 1.93359C14.1035 1.78125 15.832 1.78125 16.8574 1.92773Z" fill="#6D7074"/>
<path d="M10.1133 5.98241C9.39843 6.08788 9.09961 6.28709 7.93359 7.45897C6.83203 8.56639 6.58593 8.89452 6.3457 9.58007C6.08202 10.3125 6.00585 11.0215 6.09374 11.9004C6.35156 14.4375 7.86328 17.2324 10.2949 19.6582C12.4687 21.832 14.9531 23.3027 17.3086 23.8008C17.7539 23.8945 18.0996 23.9238 18.7207 23.9238C19.6992 23.918 20.1973 23.8066 20.9356 23.4258C21.3574 23.209 21.5449 23.0566 22.5059 22.0957C23.8535 20.7539 24.0352 20.4375 24.0352 19.4766C24.0293 18.5508 23.7305 18.0527 22.3652 16.7168C21.5449 15.9141 21.3398 15.7441 20.9531 15.5566C20.5664 15.3633 20.4316 15.3281 20.0039 15.3047C19.1074 15.2578 18.627 15.4687 17.7832 16.2949L17.1914 16.8691L15.1582 14.8359L13.1309 12.8027L13.7051 12.2109C14.0215 11.8887 14.3437 11.5078 14.4141 11.373C14.8359 10.541 14.8066 9.63866 14.3262 8.81249C14.0918 8.40233 12.1816 6.50975 11.7773 6.28709C11.2617 5.99998 10.6992 5.90038 10.1133 5.98241ZM11.8184 8.80663C12.8789 9.85546 12.9609 9.97264 12.8613 10.3535C12.8379 10.4531 12.4687 10.875 11.9238 11.4258C10.9219 12.4453 10.834 12.5918 10.957 13.0664C11.0156 13.3066 11.2969 13.5996 13.8457 16.1543C16.3418 18.6504 16.6992 18.9844 16.9219 19.043C17.4023 19.166 17.5664 19.0723 18.5449 18.1055C19.0313 17.6309 19.4824 17.209 19.5527 17.1738C19.7285 17.0859 19.957 17.0918 20.1445 17.1914C20.4199 17.3379 22.1426 19.1133 22.1953 19.3066C22.3008 19.6699 22.1895 19.8457 21.2461 20.7832C20.2324 21.7969 19.9336 21.9785 19.1602 22.0898C16.8926 22.4121 13.2129 20.3672 10.6641 17.373C8.77734 15.1465 7.66992 12.5273 7.91015 10.8398C8.02148 10.0664 8.20312 9.76757 9.21679 8.75389C10.1309 7.83397 10.3066 7.71678 10.6641 7.78124C10.752 7.79881 11.1973 8.19139 11.8184 8.80663Z" fill="#6D7074"/>
</svg>
